<svg xmlns="http://www.w3.org/2000/svg" viewBox="0 0 100 100" width="100" height="100">
  <rect width="100" height="100" fill="#09090E"/>
  <path d="M50,50 L52.3,7.2 A43 43 0 0 1 87.2,28.5 L69.5,37.4 A22 22 0 0 0 61.2,27.7 Z" fill="#7C5CF5"/>
  <path d="M50,50 L89.5,33 A43 43 0 0 1 89.5,67 L72,58.5 A22 22 0 0 0 72,41.5 Z" fill="#38BDF8"/>
  <path d="M50,50 L87.2,71.5 A43 43 0 0 1 52.3,92.8 L61.2,72.3 A22 22 0 0 0 69.5,62.6 Z" fill="#34D399"/>
  <path d="M50,50 L47.7,92.8 A43 43 0 0 1 12.8,71.5 L30.5,62.6 A22 22 0 0 0 38.8,72.3 Z" fill="#FBBF24"/>
  <path d="M50,50 L10.5,67 A43 43 0 0 1 10.5,33 L28,41.5 A22 22 0 0 0 28,58.5 Z" fill="#F87171"/>
  <path d="M50,50 L12.8,28.5 A43 43 0 0 1 47.7,7.2 L38.8,27.7 A22 22 0 0 0 30.5,37.4 Z" fill="#A78BFA"/>
  <circle cx="50" cy="50" r="21" fill="#09090E"/>
  <circle cx="50" cy="50" r="9" fill="white"/>
  <circle cx="50" cy="50" r="4" fill="#09090E"/>
  <circle cx="50" cy="50" r="1.5" fill="white"/>
</svg>
